<svg width="9" height="10" viewBox="0 0 9 10" fill="none" xmlns="http://www.w3.org/2000/svg">
<path d="M1.38096 7.91659V7.08325H2.21429V4.16659C2.21429 3.93742 2.2438 3.71172 2.30283 3.4895C2.36186 3.26728 2.4504 3.05547 2.56846 2.85409L3.19346 3.47909C3.14485 3.5902 3.10839 3.70304 3.08408 3.81763C3.05978 3.93221 3.04762 4.04853 3.04762 4.16659V7.08325H5.63096L0.297623 1.74992L0.880956 1.16659L8.54762 8.83325L7.96429 9.41659L6.44346 7.91659H1.38096ZM7.21429 6.31242L6.38096 5.47909V4.16659C6.38096 3.70825 6.21776 3.31589 5.89137 2.9895C5.56498 2.66311 5.17262 2.49992 4.71429 2.49992C4.53373 2.49992 4.36012 2.5277 4.19346 2.58325C4.02679 2.63881 3.87401 2.72214 3.73512 2.83325L3.13096 2.22909C3.26985 2.11797 3.41915 2.02075 3.57887 1.93742C3.7386 1.85409 3.90873 1.79159 4.08929 1.74992V1.45825C4.08929 1.28464 4.15005 1.13707 4.27158 1.01554C4.39311 0.894016 4.54068 0.833252 4.71429 0.833252C4.8879 0.833252 5.03547 0.894016 5.157 1.01554C5.27853 1.13707 5.33929 1.28464 5.33929 1.45825V1.74992C5.89485 1.88881 6.34623 2.18221 6.69346 2.63013C7.04068 3.07804 7.21429 3.5902 7.21429 4.16659V6.31242ZM4.71429 9.16659C4.48512 9.16659 4.28894 9.08499 4.12575 8.92179C3.96255 8.7586 3.88096 8.56242 3.88096 8.33325H5.54762C5.54762 8.56242 5.46603 8.7586 5.30283 8.92179C5.13964 9.08499 4.94346 9.16659 4.71429 9.16659Z" />
</svg>
