<svg width="36" height="38" viewBox="0 0 36 38" fill="none" xmlns="http://www.w3.org/2000/svg">
<path fill-rule="evenodd" clip-rule="evenodd" d="M35.4453 29.1224C35.4453 27.5024 35.4329 26.3658 35.4141 26.1791L35.3604 25.805C35.0253 23.951 33.7105 22.3678 31.8535 21.6205C31.3773 21.4287 30.9823 21.3224 30.3369 21.2162C30.1954 21.1926 29.045 21.1782 26.623 21.1664L23.1133 21.1488L22.8154 21.013C21.9568 20.6205 21.4679 19.9443 21.2266 18.8168C21.1482 18.4448 21.1482 17.0659 21.2266 16.5375C21.3927 15.4187 21.6308 14.5066 22.1416 13.0013C22.5208 11.8855 22.5557 11.7757 22.75 11.1351C23.2451 9.51456 23.5899 7.94118 23.6934 6.84605C23.7122 6.64236 23.7493 6.30275 23.7744 6.08726C23.7995 5.87178 23.8184 5.59406 23.8184 5.46714L23.8066 5.19273C23.7542 4.52949 23.5251 3.72081 23.207 3.10874C22.1979 1.16342 20.233 -0.0232704 18.0518 0.000346038L17.5664 0.0149945C15.8427 0.19802 14.36 1.05732 13.3916 2.43296C13.0021 2.98585 12.8311 3.29901 12.6895 3.73472L12.6299 3.92906C12.4042 4.73791 12.3568 5.21976 12.4258 6.16441C12.5437 7.87689 12.8731 9.45386 13.6064 11.7396L13.9463 12.765C14.3153 13.8521 14.5166 14.5075 14.667 15.1322L14.8047 15.7611C14.9293 16.3788 14.9744 16.6811 14.9893 17.1634L14.9961 17.724C14.9961 18.4648 14.9894 18.5831 14.9268 18.8783C14.7034 19.9135 14.1969 20.6221 13.4111 20.9984L13.251 21.0687L13.0527 21.1488L9.15137 21.1664C5.34984 21.1811 5.23963 21.1844 4.9043 21.2464C4.45935 21.3262 3.90777 21.4856 3.53809 21.6361C1.87735 22.3239 0.639822 23.6932 0.188477 25.3402C0.0035734 26.0103 6.79902e-08 26.1021 0 29.0628V31.7611H35.4453V29.1224ZM3.00098 28.7611C3.00128 27.447 3.00272 26.8474 3.02051 26.4925C3.02668 26.3695 3.03356 26.3206 3.03516 26.3099L3.08008 26.138L3.08105 26.1332C3.27242 25.4347 3.82632 24.7679 4.67676 24.4125C4.84222 24.3461 5.17962 24.2455 5.42676 24.2005C5.46557 24.1981 5.56381 24.192 5.78516 24.1878C6.30077 24.1781 7.24828 24.1738 9.16309 24.1664H9.16504L13.6426 24.1459L14.1758 23.93L14.373 23.8509C16.2346 23.0994 17.3174 21.5792 17.7764 19.8578L17.8594 19.5111L17.8613 19.5013C17.9973 18.8611 17.9961 18.4514 17.9961 17.724C17.9961 16.6592 17.9536 16.1972 17.7461 15.1683C17.537 14.1207 17.2956 13.298 16.7871 11.8002L16.7861 11.7982C15.8549 9.06241 15.529 7.55581 15.4189 5.95835L15.418 5.94566C15.3894 5.55412 15.3953 5.38027 15.4053 5.27183C15.4141 5.176 15.4342 5.04504 15.5146 4.75425C15.5563 4.60947 15.5724 4.58198 15.5781 4.57066C15.5975 4.53261 15.6534 4.43068 15.8438 4.1605L15.8447 4.15953C16.287 3.53135 16.9544 3.11701 17.8135 3.00816C17.8242 3.00777 17.8359 3.00663 17.8486 3.00621C17.9211 3.00377 18.0065 3.00248 18.0879 3.00132C19.1261 2.99139 20.0521 3.54249 20.5439 4.49058L20.5449 4.49253C20.6066 4.61129 20.6852 4.80795 20.7451 5.03941C20.7735 5.14901 20.7927 5.24893 20.8047 5.3314C20.8105 5.37178 20.8145 5.40442 20.8164 5.42906C20.8171 5.43753 20.818 5.44473 20.8184 5.45054L20.8135 5.5355C20.8082 5.61124 20.8011 5.68743 20.7949 5.74058C20.7695 5.95901 20.7284 6.32388 20.7061 6.5648C20.6287 7.3833 20.3438 8.74392 19.8809 10.2591L19.8789 10.265C19.6979 10.8617 19.6742 10.9368 19.3008 12.0355V12.0375C18.8235 13.444 18.5376 14.4589 18.3389 15.599L18.2588 16.097C18.1851 16.594 18.168 17.2586 18.168 17.7357C18.168 18.138 18.1766 18.8916 18.291 19.4349L18.293 19.4447C18.4727 20.2845 18.7863 21.1577 19.3584 21.9486C19.9511 22.7679 20.7145 23.3512 21.5684 23.7416L21.5703 23.7425L22.4541 24.1449L23.0977 24.1488L26.6084 24.1664C27.8185 24.1723 28.7014 24.1789 29.2959 24.1869C29.5945 24.1909 29.8081 24.1944 29.9492 24.1986C29.9574 24.1988 29.9653 24.1993 29.9727 24.1996C30.3603 24.2678 30.5243 24.3195 30.7334 24.4037L30.9199 24.4857C31.8052 24.9101 32.3223 25.6764 32.4238 26.4476C32.4246 26.4712 32.4264 26.5083 32.4277 26.5619C32.4311 26.7009 32.4339 26.8963 32.4365 27.1449C32.441 27.5643 32.4426 28.1144 32.4434 28.7611H3.00098Z" fill="#F68B4D"/>
<path d="M35.4453 33.975H0V37.3109H35.4453V33.975Z" fill="#F68B4D"/>
</svg>
