<svg width="29" height="36" viewBox="0 0 29 36" fill="none" xmlns="http://www.w3.org/2000/svg">
<path d="M14.5 18C15.4969 18 16.3503 17.6475 17.0602 16.9425C17.7701 16.2375 18.125 15.39 18.125 14.4C18.125 13.41 17.7701 12.5625 17.0602 11.8575C16.3503 11.1525 15.4969 10.8 14.5 10.8C13.5031 10.8 12.6497 11.1525 11.9398 11.8575C11.2299 12.5625 10.875 13.41 10.875 14.4C10.875 15.39 11.2299 16.2375 11.9398 16.9425C12.6497 17.6475 13.5031 18 14.5 18ZM14.5 31.23C18.1854 27.87 20.9193 24.8175 22.7016 22.0725C24.4839 19.3275 25.375 16.89 25.375 14.76C25.375 11.49 24.3253 8.8125 22.2258 6.7275C20.1263 4.6425 17.551 3.6 14.5 3.6C11.449 3.6 8.8737 4.6425 6.77422 6.7275C4.67474 8.8125 3.625 11.49 3.625 14.76C3.625 16.89 4.51615 19.3275 6.29844 22.0725C8.08073 24.8175 10.8146 27.87 14.5 31.23ZM14.5 36C9.63646 31.89 6.00391 28.0725 3.60234 24.5475C1.20078 21.0225 0 17.76 0 14.76C0 10.26 1.45755 6.675 4.37266 4.005C7.28776 1.335 10.6635 0 14.5 0C18.3365 0 21.7122 1.335 24.6273 4.005C27.5424 6.675 29 10.26 29 14.76C29 17.76 27.7992 21.0225 25.3977 24.5475C22.9961 28.0725 19.3635 31.89 14.5 36Z" />
</svg>
