<svg width="30" height="33" viewBox="0 0 30 33" fill="none" xmlns="http://www.w3.org/2000/svg">
<path d="M3.33333 33C2.41667 33 1.63194 32.6769 0.979167 32.0306C0.326389 31.3844 0 30.6075 0 29.7V6.6C0 5.6925 0.326389 4.91563 0.979167 4.26937C1.63194 3.62313 2.41667 3.3 3.33333 3.3H5V0H8.33333V3.3H21.6667V0H25V3.3H26.6667C27.5833 3.3 28.3681 3.62313 29.0208 4.26937C29.6736 4.91563 30 5.6925 30 6.6V29.7C30 30.6075 29.6736 31.3844 29.0208 32.0306C28.3681 32.6769 27.5833 33 26.6667 33H3.33333ZM3.33333 29.7H26.6667V13.2H3.33333V29.7ZM3.33333 9.9H26.6667V6.6H3.33333V9.9ZM15 19.8C14.5278 19.8 14.1319 19.6419 13.8125 19.3256C13.4931 19.0094 13.3333 18.6175 13.3333 18.15C13.3333 17.6825 13.4931 17.2906 13.8125 16.9744C14.1319 16.6581 14.5278 16.5 15 16.5C15.4722 16.5 15.8681 16.6581 16.1875 16.9744C16.5069 17.2906 16.6667 17.6825 16.6667 18.15C16.6667 18.6175 16.5069 19.0094 16.1875 19.3256C15.8681 19.6419 15.4722 19.8 15 19.8ZM8.33333 19.8C7.86111 19.8 7.46528 19.6419 7.14583 19.3256C6.82639 19.0094 6.66667 18.6175 6.66667 18.15C6.66667 17.6825 6.82639 17.2906 7.14583 16.9744C7.46528 16.6581 7.86111 16.5 8.33333 16.5C8.80556 16.5 9.20139 16.6581 9.52083 16.9744C9.84028 17.2906 10 17.6825 10 18.15C10 18.6175 9.84028 19.0094 9.52083 19.3256C9.20139 19.6419 8.80556 19.8 8.33333 19.8ZM21.6667 19.8C21.1944 19.8 20.7986 19.6419 20.4792 19.3256C20.1597 19.0094 20 18.6175 20 18.15C20 17.6825 20.1597 17.2906 20.4792 16.9744C20.7986 16.6581 21.1944 16.5 21.6667 16.5C22.1389 16.5 22.5347 16.6581 22.8542 16.9744C23.1736 17.2906 23.3333 17.6825 23.3333 18.15C23.3333 18.6175 23.1736 19.0094 22.8542 19.3256C22.5347 19.6419 22.1389 19.8 21.6667 19.8ZM15 26.4C14.5278 26.4 14.1319 26.2419 13.8125 25.9256C13.4931 25.6094 13.3333 25.2175 13.3333 24.75C13.3333 24.2825 13.4931 23.8906 13.8125 23.5744C14.1319 23.2581 14.5278 23.1 15 23.1C15.4722 23.1 15.8681 23.2581 16.1875 23.5744C16.5069 23.8906 16.6667 24.2825 16.6667 24.75C16.6667 25.2175 16.5069 25.6094 16.1875 25.9256C15.8681 26.2419 15.4722 26.4 15 26.4ZM8.33333 26.4C7.86111 26.4 7.46528 26.2419 7.14583 25.9256C6.82639 25.6094 6.66667 25.2175 6.66667 24.75C6.66667 24.2825 6.82639 23.8906 7.14583 23.5744C7.46528 23.2581 7.86111 23.1 8.33333 23.1C8.80556 23.1 9.20139 23.2581 9.52083 23.5744C9.84028 23.8906 10 24.2825 10 24.75C10 25.2175 9.84028 25.6094 9.52083 25.9256C9.20139 26.2419 8.80556 26.4 8.33333 26.4ZM21.6667 26.4C21.1944 26.4 20.7986 26.2419 20.4792 25.9256C20.1597 25.6094 20 25.2175 20 24.75C20 24.2825 20.1597 23.8906 20.4792 23.5744C20.7986 23.2581 21.1944 23.1 21.6667 23.1C22.1389 23.1 22.5347 23.2581 22.8542 23.5744C23.1736 23.8906 23.3333 24.2825 23.3333 24.75C23.3333 25.2175 23.1736 25.6094 22.8542 25.9256C22.5347 26.2419 22.1389 26.4 21.6667 26.4Z"/>
</svg>
