<svg width="34" height="40" viewBox="0 0 34 40" fill="none" xmlns="http://www.w3.org/2000/svg">
<path d="M24.5 24.5C26.9193 24.5 29.2182 25.5262 30.8975 27.3174C32.5736 29.1053 33.5 31.5106 33.5 34V38C33.5 38.8284 32.8284 39.5 32 39.5C31.1716 39.5 30.5 38.8284 30.5 38V34C30.5 32.246 29.8458 30.5818 28.709 29.3691C27.5752 28.1598 26.0589 27.5 24.5 27.5H9.5C7.94108 27.5 6.42481 28.1598 5.29102 29.3691C4.15417 30.5818 3.5 32.246 3.5 34V38C3.5 38.8284 2.82843 39.5 2 39.5C1.17157 39.5 0.5 38.8284 0.5 38V34C0.5 31.5106 1.42637 29.1053 3.10254 27.3174C4.78179 25.5262 7.08067 24.5 9.5 24.5H24.5ZM17 0.5C22.0603 0.500001 26 4.84596 26 10C26 15.154 22.0603 19.5 17 19.5C11.9397 19.5 8 15.154 8 10C8 4.84596 11.9397 0.5 17 0.5ZM17 3.5C13.776 3.5 11 6.31749 11 10C11 13.6825 13.776 16.5 17 16.5C20.224 16.5 23 13.6825 23 10C23 6.31749 20.224 3.5 17 3.5Z" />
</svg>
