<svg width="16" height="16" viewBox="0 0 16 16" fill="none" xmlns="http://www.w3.org/2000/svg">
<path d="M1.93335 15.8C1.45668 15.8 1.04862 15.6472 0.709179 15.3417C0.369734 15.0362 0.200012 14.669 0.200012 14.24V3.31995C0.200012 2.89095 0.369734 2.5237 0.709179 2.2182C1.04862 1.9127 1.45668 1.75995 1.93335 1.75995H2.80001V0.199951H4.53335V1.75995H11.4667V0.199951H13.2V1.75995H14.0667C14.5433 1.75995 14.9514 1.9127 15.2908 2.2182C15.6303 2.5237 15.8 2.89095 15.8 3.31995V14.24C15.8 14.669 15.6303 15.0362 15.2908 15.3417C14.9514 15.6472 14.5433 15.8 14.0667 15.8H1.93335ZM1.93335 14.24H14.0667V6.43995H1.93335V14.24ZM1.93335 4.87995H14.0667V3.31995H1.93335V4.87995ZM8.00001 9.55995C7.75446 9.55995 7.54862 9.4852 7.38251 9.3357C7.2164 9.1862 7.13335 9.00095 7.13335 8.77995C7.13335 8.55895 7.2164 8.3737 7.38251 8.2242C7.54862 8.0747 7.75446 7.99995 8.00001 7.99995C8.24557 7.99995 8.4514 8.0747 8.61751 8.2242C8.78362 8.3737 8.86668 8.55895 8.86668 8.77995C8.86668 9.00095 8.78362 9.1862 8.61751 9.3357C8.4514 9.4852 8.24557 9.55995 8.00001 9.55995ZM4.53335 9.55995C4.28779 9.55995 4.08196 9.4852 3.91585 9.3357C3.74973 9.1862 3.66668 9.00095 3.66668 8.77995C3.66668 8.55895 3.74973 8.3737 3.91585 8.2242C4.08196 8.0747 4.28779 7.99995 4.53335 7.99995C4.7789 7.99995 4.98474 8.0747 5.15085 8.2242C5.31696 8.3737 5.40001 8.55895 5.40001 8.77995C5.40001 9.00095 5.31696 9.1862 5.15085 9.3357C4.98474 9.4852 4.7789 9.55995 4.53335 9.55995ZM11.4667 9.55995C11.2211 9.55995 11.0153 9.4852 10.8492 9.3357C10.6831 9.1862 10.6 9.00095 10.6 8.77995C10.6 8.55895 10.6831 8.3737 10.8492 8.2242C11.0153 8.0747 11.2211 7.99995 11.4667 7.99995C11.7122 7.99995 11.9181 8.0747 12.0842 8.2242C12.2503 8.3737 12.3333 8.55895 12.3333 8.77995C12.3333 9.00095 12.2503 9.1862 12.0842 9.3357C11.9181 9.4852 11.7122 9.55995 11.4667 9.55995ZM8.00001 12.68C7.75446 12.68 7.54862 12.6052 7.38251 12.4557C7.2164 12.3062 7.13335 12.121 7.13335 11.9C7.13335 11.679 7.2164 11.4937 7.38251 11.3442C7.54862 11.1947 7.75446 11.12 8.00001 11.12C8.24557 11.12 8.4514 11.1947 8.61751 11.3442C8.78362 11.4937 8.86668 11.679 8.86668 11.9C8.86668 12.121 8.78362 12.3062 8.61751 12.4557C8.4514 12.6052 8.24557 12.68 8.00001 12.68ZM4.53335 12.68C4.28779 12.68 4.08196 12.6052 3.91585 12.4557C3.74973 12.3062 3.66668 12.121 3.66668 11.9C3.66668 11.679 3.74973 11.4937 3.91585 11.3442C4.08196 11.1947 4.28779 11.12 4.53335 11.12C4.7789 11.12 4.98474 11.1947 5.15085 11.3442C5.31696 11.4937 5.40001 11.679 5.40001 11.9C5.40001 12.121 5.31696 12.3062 5.15085 12.4557C4.98474 12.6052 4.7789 12.68 4.53335 12.68ZM11.4667 12.68C11.2211 12.68 11.0153 12.6052 10.8492 12.4557C10.6831 12.3062 10.6 12.121 10.6 11.9C10.6 11.679 10.6831 11.4937 10.8492 11.3442C11.0153 11.1947 11.2211 11.12 11.4667 11.12C11.7122 11.12 11.9181 11.1947 12.0842 11.3442C12.2503 11.4937 12.3333 11.679 12.3333 11.9C12.3333 12.121 12.2503 12.3062 12.0842 12.4557C11.9181 12.6052 11.7122 12.68 11.4667 12.68Z" fill="#4B4B4B"/>
</svg>
