<svg width="12" height="12" viewBox="0 0 12 12" fill="none" xmlns="http://www.w3.org/2000/svg">
<path d="M1.91667 10.0833H2.74792L8.45 4.38125L7.61875 3.55L1.91667 9.25208V10.0833ZM0.75 11.25V8.77083L8.45 1.08542C8.56667 0.978472 8.69549 0.895833 8.83646 0.8375C8.97743 0.779167 9.12569 0.75 9.28125 0.75C9.43681 0.75 9.5875 0.779167 9.73333 0.8375C9.87917 0.895833 10.0056 0.983333 10.1125 1.1L10.9146 1.91667C11.0312 2.02361 11.1163 2.15 11.1698 2.29583C11.2233 2.44167 11.25 2.5875 11.25 2.73333C11.25 2.88889 11.2233 3.03715 11.1698 3.17812C11.1163 3.3191 11.0312 3.44792 10.9146 3.56458L3.22917 11.25H0.75ZM8.02708 3.97292L7.61875 3.55L8.45 4.38125L8.02708 3.97292Z" fill="#4B4B4B"/>
</svg>
