<svg width="28" height="28" viewBox="0 0 28 28" fill="none" xmlns="http://www.w3.org/2000/svg">
<path d="M25.7529 0.520569C26.1879 0.448081 26.6333 0.570525 26.9697 0.85553C27.3061 1.14053 27.5 1.55919 27.5 2.00006V19.3331C27.5 22.3706 25.0376 24.8331 22 24.8331C18.9624 24.8331 16.5 22.3706 16.5 19.3331C16.5001 16.2956 18.9625 13.8331 22 13.8331C22.9005 13.8331 23.7498 14.051 24.5 14.4346V3.77057L11.5 5.93756V22.0001L11.4932 22.2833C11.3457 25.1892 8.94256 27.5001 6 27.5001C2.96246 27.5001 0.500042 25.0376 0.5 22.0001C0.5 18.9625 2.96243 16.5001 6 16.5001C6.90038 16.5001 7.74984 16.7171 8.5 17.1006V4.66705L8.50586 4.53033C8.56683 3.85724 9.0752 3.30077 9.75293 3.18756L25.7529 0.520569ZM6 19.5001C4.61929 19.5001 3.5 20.6193 3.5 22.0001C3.50004 23.3807 4.61931 24.5001 6 24.5001C7.38069 24.5001 8.49996 23.3807 8.5 22.0001C8.5 20.6193 7.38071 19.5001 6 19.5001ZM22 16.8331C20.6194 16.8331 19.5001 17.9525 19.5 19.3331C19.5 20.7138 20.6193 21.8331 22 21.8331C23.3807 21.8331 24.5 20.7138 24.5 19.3331C24.4999 17.9525 23.3806 16.8331 22 16.8331Z" fill="#F68B4D"/>
</svg>
