<svg width="30" height="29" viewBox="0 0 30 29" fill="none" xmlns="http://www.w3.org/2000/svg">
<path d="M25.5 0.5C26.6935 0.5 27.8381 0.974106 28.682 1.81802C29.5259 2.66193 30 3.80653 30 5V20C30 21.1935 29.5259 22.3381 28.682 23.182C27.8381 24.0259 26.6935 24.5 25.5 24.5H7.9995L3 28.25C1.764 29.177 0 28.295 0 26.75V5C0 3.80653 0.474106 2.66193 1.31802 1.81802C2.16193 0.974106 3.30653 0.5 4.5 0.5H25.5ZM25.5 3.5H4.5C4.10218 3.5 3.72064 3.65804 3.43934 3.93934C3.15804 4.22064 3 4.60218 3 5V24.5L6.1995 22.1C6.71879 21.7105 7.35039 21.5 7.9995 21.5H25.5C25.8978 21.5 26.2794 21.342 26.5607 21.0607C26.842 20.7794 27 20.3978 27 20V5C27 4.60218 26.842 4.22064 26.5607 3.93934C26.2794 3.65804 25.8978 3.5 25.5 3.5ZM13.5 14C13.8823 14.0004 14.25 14.1468 14.5281 14.4093C14.8061 14.6717 14.9734 15.0304 14.9958 15.4121C15.0182 15.7938 14.894 16.1696 14.6486 16.4627C14.4032 16.7559 14.0551 16.9443 13.6755 16.9895L13.5 17H9C8.61768 16.9996 8.24995 16.8532 7.97195 16.5907C7.69394 16.3283 7.52665 15.9696 7.50424 15.5879C7.48184 15.2062 7.60601 14.8304 7.8514 14.5373C8.09678 14.2441 8.44486 14.0557 8.8245 14.0105L9 14H13.5ZM21 8C21.3978 8 21.7794 8.15804 22.0607 8.43934C22.342 8.72064 22.5 9.10218 22.5 9.5C22.5 9.89782 22.342 10.2794 22.0607 10.5607C21.7794 10.842 21.3978 11 21 11H9C8.60218 11 8.22064 10.842 7.93934 10.5607C7.65804 10.2794 7.5 9.89782 7.5 9.5C7.5 9.10218 7.65804 8.72064 7.93934 8.43934C8.22064 8.15804 8.60218 8 9 8H21Z" />
</svg>
