<svg width="10" height="9" viewBox="0 0 10 9" fill="none" xmlns="http://www.w3.org/2000/svg">
<path d="M7.25 0.5C8.52288 0.5 9.49985 1.47195 9.5 2.69727C9.5 3.4568 9.1566 4.18718 8.44434 5.04199C7.72677 5.90314 6.69085 6.82698 5.39355 7.9834L5.00098 8.33008L4.6084 7.97949L4.60742 7.97852L3.68359 7.1543C2.81112 6.36745 2.09389 5.6865 1.55566 5.04102C0.843555 4.18695 0.5 3.45677 0.5 2.69727C0.50015 1.47195 1.47712 0.5 2.75 0.5C3.47201 0.5 4.17006 0.83208 4.62207 1.35254L5 1.78809L5.37793 1.35254C5.82994 0.832081 6.52799 0.5 7.25 0.5Z"/>
</svg>
