<svg width="24" height="30" viewBox="0 0 24 30" fill="none" xmlns="http://www.w3.org/2000/svg">
<path fill-rule="evenodd" clip-rule="evenodd" d="M0 7.5C0 5.51088 0.790176 3.60322 2.1967 2.1967C3.60322 0.790176 5.51088 0 7.5 0H16.5C18.4891 0 20.3968 0.790176 21.8033 2.1967C23.2098 3.60322 24 5.51088 24 7.5V16.5C24 18.4891 23.2098 20.3968 21.8033 21.8033C20.3968 23.2098 18.4891 24 16.5 24H13.5V27H16.5C16.8978 27 17.2794 27.158 17.5607 27.4393C17.842 27.7206 18 28.1022 18 28.5C18 28.8978 17.842 29.2794 17.5607 29.5607C17.2794 29.842 16.8978 30 16.5 30H7.5C7.10218 30 6.72064 29.842 6.43934 29.5607C6.15804 29.2794 6 28.8978 6 28.5C6 28.1022 6.15804 27.7206 6.43934 27.4393C6.72064 27.158 7.10218 27 7.5 27H10.5V24H7.5C5.51088 24 3.60322 23.2098 2.1967 21.8033C0.790176 20.3968 0 18.4891 0 16.5V7.5ZM12 21H16.5C17.6935 21 18.8381 20.5259 19.682 19.682C20.5259 18.8381 21 17.6935 21 16.5H16.5C16.1022 16.5 15.7206 16.342 15.4393 16.0607C15.158 15.7794 15 15.3978 15 15C15 14.6022 15.158 14.2206 15.4393 13.9393C15.7206 13.658 16.1022 13.5 16.5 13.5H21V10.5H16.5C16.1022 10.5 15.7206 10.342 15.4393 10.0607C15.158 9.77936 15 9.39782 15 9C15 8.60218 15.158 8.22064 15.4393 7.93934C15.7206 7.65804 16.1022 7.5 16.5 7.5H21C21 6.30653 20.5259 5.16193 19.682 4.31802C18.8381 3.47411 17.6935 3 16.5 3H7.5C6.30653 3 5.16193 3.47411 4.31802 4.31802C3.47411 5.16193 3 6.30653 3 7.5H7.5C7.89782 7.5 8.27936 7.65804 8.56066 7.93934C8.84196 8.22064 9 8.60218 9 9C9 9.39782 8.84196 9.77936 8.56066 10.0607C8.27936 10.342 7.89782 10.5 7.5 10.5H3V13.5H7.5C7.89782 13.5 8.27936 13.658 8.56066 13.9393C8.84196 14.2206 9 14.6022 9 15C9 15.3978 8.84196 15.7794 8.56066 16.0607C8.27936 16.342 7.89782 16.5 7.5 16.5H3C3 17.6935 3.47411 18.8381 4.31802 19.682C5.16193 20.5259 6.30653 21 7.5 21H12Z" fill="#F68B4D"/>
</svg>
