<svg width="28" height="36" viewBox="0 0 28 36" fill="none" xmlns="http://www.w3.org/2000/svg">
<path d="M24.9267 0.615024L25.1117 0.70669L26.555 1.54002C26.8463 1.70822 27.0798 1.96062 27.225 2.26403C27.3702 2.56745 27.4201 2.90768 27.3683 3.24002L27.325 3.44002L26.38 6.74502C26.3154 6.97084 26.2038 7.18046 26.0526 7.36014C25.9013 7.53982 25.7138 7.6855 25.5023 7.78764C25.2908 7.88977 25.0601 7.94604 24.8253 7.95277C24.5905 7.9595 24.357 7.91654 24.14 7.82669L23.9433 7.73002L21.3867 12.1567C22.92 13.3584 23.6683 14.645 24.1767 15.845C24.5483 16.7167 24.8667 17.8534 24.6867 19.0767C24.5117 20.2634 23.8917 21.3467 22.7867 22.2234L22.4717 22.4567C21.75 22.965 21.7383 23.5517 21.925 24.285L22.1 24.9234C22.405 26.07 22.7683 27.8634 22.22 29.94C21.76 31.6784 20.6483 33.0484 19.3867 33.9584C18.145 34.855 16.61 35.41 15.1567 35.335C12.89 35.2184 10.575 34.6517 7.49999 32.8767C4.42499 31.1017 2.77666 29.38 1.54332 27.4767C0.751657 26.255 0.46499 24.6467 0.61999 23.1234C0.776657 21.5767 1.40832 19.9284 2.68332 18.6617C3.98999 17.3634 5.44999 16.75 6.56332 16.4084L7.08832 16.2567L7.54166 16.14C8.41499 15.9167 8.87332 15.7517 9.00832 14.9234L9.03666 14.7C9.17832 13.115 9.83332 11.905 10.8583 11.0917C11.825 10.325 12.9717 10.0334 13.9117 9.91836C15.0983 9.77336 16.4467 9.76502 18.055 10.3234L18.5 10.49L21.0567 6.06336C20.8534 5.94584 20.6773 5.78671 20.5398 5.59638C20.4023 5.40605 20.3066 5.18883 20.2589 4.95894C20.2112 4.72904 20.2127 4.49167 20.2631 4.26237C20.3136 4.03307 20.4119 3.81701 20.5517 3.62836L20.6917 3.46169L23.08 0.99169C23.3138 0.749884 23.6154 0.584496 23.945 0.517268C24.2746 0.45004 24.6168 0.484118 24.9267 0.615024ZM14.3167 13.2267C13.6833 13.305 13.2233 13.4717 12.9283 13.705C12.7183 13.8717 12.485 14.1534 12.3867 14.755L12.3583 14.995C12.25 16.215 11.865 17.2217 11.135 17.98C10.4417 18.7 9.53999 19.0434 8.60832 19.3067L7.65999 19.5667C6.76666 19.825 5.89166 20.1717 5.03332 21.025C4.39832 21.6567 4.02999 22.5384 3.93499 23.4617C3.83999 24.4084 4.04832 25.2134 4.33999 25.6617C5.26999 27.0984 6.51999 28.4617 9.16666 29.99C11.8133 31.5184 13.62 31.9184 15.3283 32.0067C15.8617 32.0334 16.665 31.8117 17.4367 31.2567C18.19 30.7134 18.7683 29.9534 18.9967 29.0884C19.3067 27.9184 19.17 26.9867 18.9467 26.0834L18.79 25.4834C18.5067 24.4317 18.2733 23.36 18.5833 22.2817C18.8417 21.3817 19.4083 20.62 20.235 19.9684L20.5583 19.7284C21.1917 19.285 21.345 18.8884 21.39 18.59C21.445 18.2184 21.36 17.7367 21.11 17.1484C20.72 16.2317 20.1817 15.2867 18.7233 14.35L18.395 14.15L18.2717 14.0784C16.5483 13.0984 15.3767 13.0967 14.3167 13.2267ZM11.7783 23.8L13.2217 24.6334C13.4127 24.742 13.5804 24.8874 13.7151 25.0611C13.8498 25.2348 13.9487 25.4334 14.0063 25.6455C14.0639 25.8577 14.079 26.0791 14.0507 26.297C14.0223 26.515 13.9512 26.7252 13.8413 26.9156C13.7314 27.1059 13.5849 27.2727 13.4103 27.4062C13.2357 27.5397 13.0364 27.6373 12.8239 27.6935C12.6114 27.7497 12.3899 27.7633 12.1721 27.7335C11.9543 27.7037 11.7446 27.6312 11.555 27.52L10.1117 26.6867C9.92058 26.5781 9.75288 26.4327 9.61821 26.259C9.48354 26.0853 9.38456 25.8866 9.32697 25.6745C9.26938 25.4624 9.25432 25.241 9.28265 25.023C9.31098 24.805 9.38215 24.5948 9.49205 24.4045C9.60195 24.2141 9.74842 24.0474 9.92302 23.9139C10.0976 23.7804 10.2969 23.6827 10.5094 23.6265C10.7219 23.5703 10.9434 23.5568 11.1612 23.5865C11.379 23.6163 11.5887 23.6889 11.7783 23.8ZM16.25 17.7217C16.7879 18.0324 17.1908 18.5323 17.3803 19.1238C17.5697 19.7154 17.5322 20.3563 17.275 20.9217L17.165 21.1367C16.8492 21.7007 16.3272 22.1204 15.7085 22.3078C15.0899 22.4952 14.4228 22.4357 13.8471 22.1418C13.2714 21.8479 12.8319 21.3425 12.6208 20.7315C12.4097 20.1206 12.4435 19.4516 12.715 18.865L12.835 18.6367C12.999 18.352 13.2175 18.1025 13.4781 17.9023C13.7386 17.7022 14.036 17.5553 14.3533 17.4702C14.6706 17.3851 15.0016 17.3633 15.3274 17.4062C15.6531 17.449 15.9672 17.5557 16.2517 17.72L16.25 17.7217Z" />
</svg>
