<svg width="42" height="15" viewBox="0 0 42 15" fill="none" xmlns="http://www.w3.org/2000/svg">
<path d="M7.9375 1.125C7.9375 4.79688 5.45312 7.34375 1.25 8.42188L0.5625 7.07812C3.85156 6.22656 5.78125 4.5625 6.07812 2.5H1.375V1.125H7.9375ZM12.2344 0.28125V8.1875H10.4844V0.28125H12.2344ZM12.2344 8.79688V14.2031H2.90625V8.79688H12.2344ZM4.625 10.1719V12.8281H10.5312V10.1719H4.625Z" fill="#1C1C1E"/>
<path d="M19.3594 2.21875C19.3438 4.0625 20.4844 5.84375 22.6875 6.5625L21.75 7.92188C20.25 7.38281 19.1641 6.33594 18.5469 5.01562C17.9219 6.53125 16.75 7.72656 15.0781 8.32812L14.1562 6.95312C16.4375 6.17188 17.6094 4.28125 17.6094 2.26562V1H19.3594V2.21875ZM25.4375 0.265625V3.59375H27.4062V5.01562H25.4375V8.46875H23.7031V0.265625H25.4375ZM25.4375 9.04688V14.2188H16.3125V9.04688H25.4375ZM18.0312 10.4375V12.8125H23.7188V10.4375H18.0312Z" fill="#1C1C1E"/>
<path d="M41.0156 7.32812V8.71875H35.5625V11.3125H33.8438V8.71875H28.1094V7.32812H41.0156ZM39.3594 0.90625V6.01562H29.75V0.90625H39.3594ZM31.4375 2.26562V4.65625H37.6406V2.26562H31.4375ZM39.5938 12.7031V14.1094H29.6719V10.0156H31.4062V12.7031H39.5938Z" fill="#1C1C1E"/>
</svg>
