<svg width="28" height="31" viewBox="0 0 28 31" fill="none" xmlns="http://www.w3.org/2000/svg">
<mask id="path-1-inside-1_269_10" fill="white">
<path d="M0 29.1571V30.4746H14H28V29.1571V27.8395H14H0V29.1571Z"/>
</mask>
<path d="M0 30.4746V33.4746H-3V30.4746H0ZM28 30.4746H31V33.4746H28V30.4746ZM28 27.8395V24.8395H31V27.8395H28ZM0 27.8395H-3V24.8395H0V27.8395ZM0 29.1571H3V30.4746H0H-3V29.1571H0ZM0 30.4746V27.4746H14V30.4746V33.4746H0V30.4746ZM14 30.4746V27.4746H28V30.4746V33.4746H14V30.4746ZM28 30.4746H25V29.1571H28H31V30.4746H28ZM28 29.1571H25V27.8395H28H31V29.1571H28ZM28 27.8395V30.8395H14V27.8395V24.8395H28V27.8395ZM14 27.8395V30.8395H0V27.8395V24.8395H14V27.8395ZM0 27.8395H3V29.1571H0H-3V27.8395H0Z" fill="#F68B4D" mask="url(#path-1-inside-1_269_10)"/>
<path d="M26.5 24.3398V23.7549C26.5 23.118 26.4974 22.5792 26.4932 22.1836C26.489 21.7946 26.4829 21.6148 26.4824 21.585C26.3795 20.6456 25.7691 19.7729 24.8018 19.3086L24.6025 19.2207C24.3601 19.123 24.1643 19.0674 23.7734 19.001C23.7542 19.0001 23.7247 18.9983 23.6836 18.9971C23.565 18.9936 23.3906 18.9895 23.1533 18.9863L21.0234 18.9707L18.251 18.9561L17.9287 18.9551L17.6357 18.8213L17.4004 18.7139H17.3994C16.8481 18.4618 16.3687 18.0927 15.9971 17.5791C15.6356 17.0795 15.4256 16.5112 15.3008 15.9277L15.2998 15.9238C15.2312 15.5983 15.2217 15.0944 15.2217 14.7607C15.2217 14.4824 15.2295 14.1481 15.2539 13.8613L15.2842 13.5938C15.3958 12.842 15.5456 12.1971 15.791 11.3984L16.0703 10.5381C16.367 9.66518 16.3883 9.59535 16.5352 9.11133L16.5361 9.1084C16.9112 7.88084 17.154 6.74435 17.2227 6.01758C17.2393 5.83801 17.271 5.55739 17.291 5.38574C17.2977 5.32796 17.3037 5.25399 17.3086 5.18359C17.311 5.14915 17.3134 5.11895 17.3145 5.0957C17.3156 5.0698 17.3154 5.0625 17.3154 5.06934C17.3154 4.7828 17.1907 4.2625 17.001 3.89746V3.89648C16.4625 2.85857 15.4297 2.23929 14.2783 2.25098C14.2062 2.25198 14.1321 2.25378 14.0703 2.25586C14.0419 2.25682 14.0169 2.25798 13.9971 2.25879C13.068 2.36732 12.3058 2.82333 11.8047 3.53516V3.53613C11.6448 3.76308 11.5732 3.88311 11.5303 3.96777C11.5122 4.00336 11.4952 4.04005 11.4775 4.08691L11.4189 4.26758C11.2937 4.71844 11.2698 4.92575 11.3125 5.51074V5.5166C11.4066 6.88285 11.6883 8.15239 12.4365 10.3506L12.4375 10.3516C12.8345 11.5211 13.0105 12.1303 13.165 12.9053L13.166 12.9043C13.3179 13.6574 13.3457 13.9646 13.3457 14.751C13.3457 15.3295 13.3449 15.5689 13.2588 15.9746L13.2578 15.9795L13.2021 16.2119C12.8969 17.36 12.1975 18.3122 11.0283 18.7842L10.873 18.8477L10.6055 18.9551L10.3184 18.9561L7.23535 18.9707H7.23438C4.1133 18.9828 4.23795 18.992 4.14746 19.0088L4.13867 19.0098L3.93652 19.0527C3.72988 19.1022 3.5105 19.1703 3.36816 19.2275H3.36914C2.45967 19.6041 1.82266 20.336 1.5957 21.1641L1.59473 21.167L1.54102 21.3818C1.52979 21.4453 1.52358 21.5149 1.51758 21.6348C1.50111 21.9634 1.5 22.516 1.5 23.708V24.3398H26.5Z" stroke="#F68B4D" stroke-width="3"/>
</svg>
