<svg width="28" height="30" viewBox="0 0 28 30" fill="none" xmlns="http://www.w3.org/2000/svg">
<path d="M26.5 23.5898V23.0049C26.5 22.368 26.4974 21.8292 26.4932 21.4336C26.489 21.0446 26.4829 20.8648 26.4824 20.835C26.3795 19.8956 25.7691 19.0229 24.8018 18.5586L24.6025 18.4707C24.3601 18.373 24.1643 18.3174 23.7734 18.251C23.7542 18.2501 23.7247 18.2483 23.6836 18.2471C23.565 18.2436 23.3906 18.2395 23.1533 18.2363L21.0234 18.2207L18.251 18.2061L17.9287 18.2051L17.6357 18.0713L17.4004 17.9639H17.3994C16.8481 17.7118 16.3687 17.3427 15.9971 16.8291C15.6356 16.3295 15.4256 15.7612 15.3008 15.1777L15.2998 15.1738C15.2312 14.8483 15.2217 14.3444 15.2217 14.0107C15.2217 13.7324 15.2295 13.3981 15.2539 13.1113L15.2842 12.8438C15.3958 12.092 15.5456 11.4471 15.791 10.6484L16.0703 9.78809C16.367 8.91518 16.3883 8.84535 16.5352 8.36133L16.5361 8.3584C16.9112 7.13084 17.154 5.99435 17.2227 5.26758C17.2393 5.08801 17.271 4.80739 17.291 4.63574C17.2977 4.57797 17.3037 4.50399 17.3086 4.43359C17.311 4.39915 17.3134 4.36895 17.3145 4.3457C17.3156 4.3198 17.3154 4.3125 17.3154 4.31934C17.3154 4.0328 17.1907 3.5125 17.001 3.14746V3.14648C16.4625 2.10857 15.4297 1.48929 14.2783 1.50098C14.2062 1.50198 14.1321 1.50378 14.0703 1.50586C14.0419 1.50682 14.0169 1.50798 13.9971 1.50879C13.068 1.61732 12.3058 2.07333 11.8047 2.78516V2.78613C11.6448 3.01308 11.5732 3.13311 11.5303 3.21777C11.5122 3.25336 11.4952 3.29005 11.4775 3.33691L11.4189 3.51758C11.2937 3.96844 11.2698 4.17575 11.3125 4.76074V4.7666C11.4066 6.13285 11.6883 7.40239 12.4365 9.60059L12.4375 9.60156C12.8345 10.7711 13.0105 11.3803 13.165 12.1553L13.166 12.1543C13.3179 12.9074 13.3457 13.2146 13.3457 14.001C13.3457 14.5795 13.3449 14.8189 13.2588 15.2246L13.2578 15.2295L13.2021 15.4619C12.8969 16.61 12.1975 17.5622 11.0283 18.0342L10.873 18.0977L10.6055 18.2051L10.3184 18.2061L7.23535 18.2207H7.23438C4.1133 18.2328 4.23795 18.242 4.14746 18.2588L4.13867 18.2598L3.93652 18.3027C3.72988 18.3522 3.5105 18.4203 3.36816 18.4775H3.36914C2.45967 18.8541 1.82266 19.586 1.5957 20.4141L1.59473 20.417L1.54102 20.6318C1.52979 20.6953 1.52358 20.7649 1.51758 20.8848C1.50111 21.2134 1.5 21.766 1.5 22.958V23.5898H26.5Z" stroke="#B0B0B0" stroke-width="3"/>
<mask id="path-2-inside-1_195_61" fill="white">
<path d="M0 28.1571V29.4746H14H28V28.1571V26.8395H14H0V28.1571Z"/>
</mask>
<path d="M0 29.4746V32.4746H-3V29.4746H0ZM28 29.4746H31V32.4746H28V29.4746ZM28 26.8395V23.8395H31V26.8395H28ZM0 26.8395H-3V23.8395H0V26.8395ZM0 28.1571H3V29.4746H0H-3V28.1571H0ZM0 29.4746V26.4746H14V29.4746V32.4746H0V29.4746ZM14 29.4746V26.4746H28V29.4746V32.4746H14V29.4746ZM28 29.4746H25V28.1571H28H31V29.4746H28ZM28 28.1571H25V26.8395H28H31V28.1571H28ZM28 26.8395V29.8395H14V26.8395V23.8395H28V26.8395ZM14 26.8395V29.8395H0V26.8395V23.8395H14V26.8395ZM0 26.8395H3V28.1571H0H-3V26.8395H0Z" fill="#B0B0B0" mask="url(#path-2-inside-1_195_61)"/>
</svg>
